<svg xmlns="http://www.w3.org/2000/svg" width="638" height="984" viewBox="0 0 638 984">
<rect width="100%" height="100%" fill="white"/>
<style>
text { font-family: Arial, Helvetica, sans-serif; fill: #111; }
.title { font-size: 24px; font-weight: 700; }
.subtitle { font-size: 13px; fill: #333; }
.axis { font-size: 13px; font-weight: 700; }
.gene { font-size: 12px; font-weight: 700; }
.value { font-size: 11px; font-weight: 700; }
.note { font-size: 11px; fill: #444; }
</style>
<text x="319.0" y="38" text-anchor="middle" class="title">Central nif/nod Coverage by Sample Type</text>
<text x="319.0" y="61" text-anchor="middle" class="subtitle">Color = percent of samples with at least one good target region per gene</text>
<text x="319.0" y="81" text-anchor="middle" class="subtitle">Good coverage threshold: percent covered >= 80 and mean depth >= 10</text>
<text x="141.0" y="107" text-anchor="middle" class="axis">BLAN</text>
<text x="233.0" y="107" text-anchor="middle" class="axis">No</text>
<text x="325.0" y="107" text-anchor="middle" class="axis">Rh</text>
<text x="417.0" y="107" text-anchor="middle" class="axis">Ro</text>
<text x="83" y="143" text-anchor="end" class="gene">nifA</text>
<rect x="95" y="125" width="92" height="26" fill="rgb(49,105,168)" stroke="white" stroke-width="1"/>
<text x="141.0" y="142" text-anchor="middle" class="value" fill="white">91.7%</text>
<rect x="187" y="125" width="92" height="26" fill="rgb(178,198,222)" stroke="white" stroke-width="1"/>
<text x="233.0" y="142" text-anchor="middle" class="value" fill="#111111">31.4%</text>
<rect x="279" y="125" width="92" height="26" fill="rgb(197,212,230)" stroke="white" stroke-width="1"/>
<text x="325.0" y="142" text-anchor="middle" class="value" fill="#111111">22.6%</text>
<rect x="371" y="125" width="92" height="26" fill="rgb(194,210,229)" stroke="white" stroke-width="1"/>
<text x="417.0" y="142" text-anchor="middle" class="value" fill="#111111">24.0%</text>
<text x="83" y="169" text-anchor="end" class="gene">nifB</text>
<rect x="95" y="151" width="92" height="26" fill="rgb(31,92,160)" stroke="white" stroke-width="1"/>
<text x="141.0" y="168" text-anchor="middle" class="value" fill="white">100.0%</text>
<rect x="187" y="151" width="92" height="26" fill="rgb(68,119,176)" stroke="white" stroke-width="1"/>
<text x="233.0" y="168" text-anchor="middle" class="value" fill="white">82.5%</text>
<rect x="279" y="151" width="92" height="26" fill="rgb(116,153,196)" stroke="white" stroke-width="1"/>
<text x="325.0" y="168" text-anchor="middle" class="value" fill="white">60.5%</text>
<rect x="371" y="151" width="92" height="26" fill="rgb(128,162,201)" stroke="white" stroke-width="1"/>
<text x="417.0" y="168" text-anchor="middle" class="value" fill="#111111">54.6%</text>
<text x="83" y="195" text-anchor="end" class="gene">nifD</text>
<rect x="95" y="177" width="92" height="26" fill="rgb(31,92,160)" stroke="white" stroke-width="1"/>
<text x="141.0" y="194" text-anchor="middle" class="value" fill="white">100.0%</text>
<rect x="187" y="177" width="92" height="26" fill="rgb(39,98,163)" stroke="white" stroke-width="1"/>
<text x="233.0" y="194" text-anchor="middle" class="value" fill="white">96.4%</text>
<rect x="279" y="177" width="92" height="26" fill="rgb(46,103,166)" stroke="white" stroke-width="1"/>
<text x="325.0" y="194" text-anchor="middle" class="value" fill="white">93.0%</text>
<rect x="371" y="177" width="92" height="26" fill="rgb(58,112,172)" stroke="white" stroke-width="1"/>
<text x="417.0" y="194" text-anchor="middle" class="value" fill="white">87.2%</text>
<text x="83" y="221" text-anchor="end" class="gene">nifE</text>
<rect x="95" y="203" width="92" height="26" fill="rgb(49,105,168)" stroke="white" stroke-width="1"/>
<text x="141.0" y="220" text-anchor="middle" class="value" fill="white">91.7%</text>
<rect x="187" y="203" width="92" height="26" fill="rgb(64,116,174)" stroke="white" stroke-width="1"/>
<text x="233.0" y="220" text-anchor="middle" class="value" fill="white">84.7%</text>
<rect x="279" y="203" width="92" height="26" fill="rgb(109,148,193)" stroke="white" stroke-width="1"/>
<text x="325.0" y="220" text-anchor="middle" class="value" fill="white">63.7%</text>
<rect x="371" y="203" width="92" height="26" fill="rgb(118,155,197)" stroke="white" stroke-width="1"/>
<text x="417.0" y="220" text-anchor="middle" class="value" fill="white">59.3%</text>
<text x="83" y="247" text-anchor="end" class="gene">nifH</text>
<rect x="95" y="229" width="92" height="26" fill="rgb(31,92,160)" stroke="white" stroke-width="1"/>
<text x="141.0" y="246" text-anchor="middle" class="value" fill="white">100.0%</text>
<rect x="187" y="229" width="92" height="26" fill="rgb(35,95,162)" stroke="white" stroke-width="1"/>
<text x="233.0" y="246" text-anchor="middle" class="value" fill="white">98.1%</text>
<rect x="279" y="229" width="92" height="26" fill="rgb(51,106,168)" stroke="white" stroke-width="1"/>
<text x="325.0" y="246" text-anchor="middle" class="value" fill="white">90.9%</text>
<rect x="371" y="229" width="92" height="26" fill="rgb(60,113,172)" stroke="white" stroke-width="1"/>
<text x="417.0" y="246" text-anchor="middle" class="value" fill="white">86.3%</text>
<text x="83" y="273" text-anchor="end" class="gene">nifJ</text>
<rect x="95" y="255" width="92" height="26" fill="rgb(227,234,243)" stroke="white" stroke-width="1"/>
<text x="141.0" y="272" text-anchor="middle" class="value" fill="#111111">8.3%</text>
<rect x="187" y="255" width="92" height="26" fill="rgb(218,228,240)" stroke="white" stroke-width="1"/>
<text x="233.0" y="272" text-anchor="middle" class="value" fill="#111111">12.6%</text>
<rect x="279" y="255" width="92" height="26" fill="rgb(224,232,242)" stroke="white" stroke-width="1"/>
<text x="325.0" y="272" text-anchor="middle" class="value" fill="#111111">9.7%</text>
<rect x="371" y="255" width="92" height="26" fill="rgb(237,241,248)" stroke="white" stroke-width="1"/>
<text x="417.0" y="272" text-anchor="middle" class="value" fill="#111111">3.8%</text>
<text x="83" y="299" text-anchor="end" class="gene">nifK</text>
<rect x="95" y="281" width="92" height="26" fill="rgb(49,105,168)" stroke="white" stroke-width="1"/>
<text x="141.0" y="298" text-anchor="middle" class="value" fill="white">91.7%</text>
<rect x="187" y="281" width="92" height="26" fill="rgb(44,101,165)" stroke="white" stroke-width="1"/>
<text x="233.0" y="298" text-anchor="middle" class="value" fill="white">94.0%</text>
<rect x="279" y="281" width="92" height="26" fill="rgb(65,117,174)" stroke="white" stroke-width="1"/>
<text x="325.0" y="298" text-anchor="middle" class="value" fill="white">84.1%</text>
<rect x="371" y="281" width="92" height="26" fill="rgb(79,127,180)" stroke="white" stroke-width="1"/>
<text x="417.0" y="298" text-anchor="middle" class="value" fill="white">77.6%</text>
<text x="83" y="325" text-anchor="end" class="gene">nifN</text>
<rect x="95" y="307" width="92" height="26" fill="rgb(31,92,160)" stroke="white" stroke-width="1"/>
<text x="141.0" y="324" text-anchor="middle" class="value" fill="white">100.0%</text>
<rect x="187" y="307" width="92" height="26" fill="rgb(133,166,203)" stroke="white" stroke-width="1"/>
<text x="233.0" y="324" text-anchor="middle" class="value" fill="#111111">52.5%</text>
<rect x="279" y="307" width="92" height="26" fill="rgb(169,192,219)" stroke="white" stroke-width="1"/>
<text x="325.0" y="324" text-anchor="middle" class="value" fill="#111111">35.5%</text>
<rect x="371" y="307" width="92" height="26" fill="rgb(163,187,216)" stroke="white" stroke-width="1"/>
<text x="417.0" y="324" text-anchor="middle" class="value" fill="#111111">38.5%</text>
<text x="83" y="351" text-anchor="end" class="gene">nifQ</text>
<rect x="95" y="333" width="92" height="26" fill="rgb(227,234,243)" stroke="white" stroke-width="1"/>
<text x="141.0" y="350" text-anchor="middle" class="value" fill="#111111">8.3%</text>
<rect x="187" y="333" width="92" height="26" fill="rgb(223,231,242)" stroke="white" stroke-width="1"/>
<text x="233.0" y="350" text-anchor="middle" class="value" fill="#111111">10.4%</text>
<rect x="279" y="333" width="92" height="26" fill="rgb(235,240,247)" stroke="white" stroke-width="1"/>
<text x="325.0" y="350" text-anchor="middle" class="value" fill="#111111">4.6%</text>
<rect x="371" y="333" width="92" height="26" fill="rgb(231,237,245)" stroke="white" stroke-width="1"/>
<text x="417.0" y="350" text-anchor="middle" class="value" fill="#111111">6.6%</text>
<text x="83" y="377" text-anchor="end" class="gene">nifS</text>
<rect x="95" y="359" width="92" height="26" fill="rgb(138,170,206)" stroke="white" stroke-width="1"/>
<text x="141.0" y="376" text-anchor="middle" class="value" fill="#111111">50.0%</text>
<rect x="187" y="359" width="92" height="26" fill="rgb(177,198,222)" stroke="white" stroke-width="1"/>
<text x="233.0" y="376" text-anchor="middle" class="value" fill="#111111">31.7%</text>
<rect x="279" y="359" width="92" height="26" fill="rgb(215,225,238)" stroke="white" stroke-width="1"/>
<text x="325.0" y="376" text-anchor="middle" class="value" fill="#111111">14.2%</text>
<rect x="371" y="359" width="92" height="26" fill="rgb(217,227,239)" stroke="white" stroke-width="1"/>
<text x="417.0" y="376" text-anchor="middle" class="value" fill="#111111">13.1%</text>
<text x="83" y="403" text-anchor="end" class="gene">nifT</text>
<rect x="95" y="385" width="92" height="26" fill="rgb(49,105,168)" stroke="white" stroke-width="1"/>
<text x="141.0" y="402" text-anchor="middle" class="value" fill="white">91.7%</text>
<rect x="187" y="385" width="92" height="26" fill="rgb(107,147,192)" stroke="white" stroke-width="1"/>
<text x="233.0" y="402" text-anchor="middle" class="value" fill="white">64.5%</text>
<rect x="279" y="385" width="92" height="26" fill="rgb(131,164,203)" stroke="white" stroke-width="1"/>
<text x="325.0" y="402" text-anchor="middle" class="value" fill="#111111">53.2%</text>
<rect x="371" y="385" width="92" height="26" fill="rgb(147,176,209)" stroke="white" stroke-width="1"/>
<text x="417.0" y="402" text-anchor="middle" class="value" fill="#111111">45.9%</text>
<text x="83" y="429" text-anchor="end" class="gene">nifU</text>
<rect x="95" y="411" width="92" height="26" fill="rgb(31,92,160)" stroke="white" stroke-width="1"/>
<text x="141.0" y="428" text-anchor="middle" class="value" fill="white">100.0%</text>
<rect x="187" y="411" width="92" height="26" fill="rgb(35,95,162)" stroke="white" stroke-width="1"/>
<text x="233.0" y="428" text-anchor="middle" class="value" fill="white">98.1%</text>
<rect x="279" y="411" width="92" height="26" fill="rgb(39,98,163)" stroke="white" stroke-width="1"/>
<text x="325.0" y="428" text-anchor="middle" class="value" fill="white">96.2%</text>
<rect x="371" y="411" width="92" height="26" fill="rgb(43,101,165)" stroke="white" stroke-width="1"/>
<text x="417.0" y="428" text-anchor="middle" class="value" fill="white">94.3%</text>
<text x="83" y="455" text-anchor="end" class="gene">nifV</text>
<rect x="95" y="437" width="92" height="26" fill="rgb(245,247,251)" stroke="white" stroke-width="1"/>
<text x="141.0" y="454" text-anchor="middle" class="value" fill="#111111">0.0%</text>
<rect x="187" y="437" width="92" height="26" fill="rgb(211,222,236)" stroke="white" stroke-width="1"/>
<text x="233.0" y="454" text-anchor="middle" class="value" fill="#111111">16.1%</text>
<rect x="279" y="437" width="92" height="26" fill="rgb(232,238,246)" stroke="white" stroke-width="1"/>
<text x="325.0" y="454" text-anchor="middle" class="value" fill="#111111">5.9%</text>
<rect x="371" y="437" width="92" height="26" fill="rgb(233,239,246)" stroke="white" stroke-width="1"/>
<text x="417.0" y="454" text-anchor="middle" class="value" fill="#111111">5.5%</text>
<text x="83" y="481" text-anchor="end" class="gene">nifW</text>
<rect x="95" y="463" width="92" height="26" fill="rgb(156,182,213)" stroke="white" stroke-width="1"/>
<text x="141.0" y="480" text-anchor="middle" class="value" fill="#111111">41.7%</text>
<rect x="187" y="463" width="92" height="26" fill="rgb(143,173,207)" stroke="white" stroke-width="1"/>
<text x="233.0" y="480" text-anchor="middle" class="value" fill="#111111">47.8%</text>
<rect x="279" y="463" width="92" height="26" fill="rgb(202,216,233)" stroke="white" stroke-width="1"/>
<text x="325.0" y="480" text-anchor="middle" class="value" fill="#111111">20.2%</text>
<rect x="371" y="463" width="92" height="26" fill="rgb(198,213,231)" stroke="white" stroke-width="1"/>
<text x="417.0" y="480" text-anchor="middle" class="value" fill="#111111">21.9%</text>
<text x="83" y="507" text-anchor="end" class="gene">nifX</text>
<rect x="95" y="489" width="92" height="26" fill="rgb(67,118,175)" stroke="white" stroke-width="1"/>
<text x="141.0" y="506" text-anchor="middle" class="value" fill="white">83.3%</text>
<rect x="187" y="489" width="92" height="26" fill="rgb(80,127,181)" stroke="white" stroke-width="1"/>
<text x="233.0" y="506" text-anchor="middle" class="value" fill="white">77.3%</text>
<rect x="279" y="489" width="92" height="26" fill="rgb(143,173,207)" stroke="white" stroke-width="1"/>
<text x="325.0" y="506" text-anchor="middle" class="value" fill="#111111">47.8%</text>
<rect x="371" y="489" width="92" height="26" fill="rgb(139,170,206)" stroke="white" stroke-width="1"/>
<text x="417.0" y="506" text-anchor="middle" class="value" fill="#111111">49.5%</text>
<text x="83" y="533" text-anchor="end" class="gene">nifZ</text>
<rect x="95" y="515" width="92" height="26" fill="rgb(138,170,206)" stroke="white" stroke-width="1"/>
<text x="141.0" y="532" text-anchor="middle" class="value" fill="#111111">50.0%</text>
<rect x="187" y="515" width="92" height="26" fill="rgb(112,151,195)" stroke="white" stroke-width="1"/>
<text x="233.0" y="532" text-anchor="middle" class="value" fill="white">62.0%</text>
<rect x="279" y="515" width="92" height="26" fill="rgb(181,201,224)" stroke="white" stroke-width="1"/>
<text x="325.0" y="532" text-anchor="middle" class="value" fill="#111111">29.8%</text>
<rect x="371" y="515" width="92" height="26" fill="rgb(172,194,220)" stroke="white" stroke-width="1"/>
<text x="417.0" y="532" text-anchor="middle" class="value" fill="#111111">33.9%</text>
<text x="83" y="559" text-anchor="end" class="gene">nodA</text>
<rect x="95" y="541" width="92" height="26" fill="rgb(31,92,160)" stroke="white" stroke-width="1"/>
<text x="141.0" y="558" text-anchor="middle" class="value" fill="white">100.0%</text>
<rect x="187" y="541" width="92" height="26" fill="rgb(150,178,211)" stroke="white" stroke-width="1"/>
<text x="233.0" y="558" text-anchor="middle" class="value" fill="#111111">44.3%</text>
<rect x="279" y="541" width="92" height="26" fill="rgb(186,204,226)" stroke="white" stroke-width="1"/>
<text x="325.0" y="558" text-anchor="middle" class="value" fill="#111111">27.4%</text>
<rect x="371" y="541" width="92" height="26" fill="rgb(182,201,224)" stroke="white" stroke-width="1"/>
<text x="417.0" y="558" text-anchor="middle" class="value" fill="#111111">29.5%</text>
<text x="83" y="585" text-anchor="end" class="gene">nodB</text>
<rect x="95" y="567" width="92" height="26" fill="rgb(31,92,160)" stroke="white" stroke-width="1"/>
<text x="141.0" y="584" text-anchor="middle" class="value" fill="white">100.0%</text>
<rect x="187" y="567" width="92" height="26" fill="rgb(148,177,210)" stroke="white" stroke-width="1"/>
<text x="233.0" y="584" text-anchor="middle" class="value" fill="#111111">45.4%</text>
<rect x="279" y="567" width="92" height="26" fill="rgb(185,203,225)" stroke="white" stroke-width="1"/>
<text x="325.0" y="584" text-anchor="middle" class="value" fill="#111111">28.2%</text>
<rect x="371" y="567" width="92" height="26" fill="rgb(177,197,222)" stroke="white" stroke-width="1"/>
<text x="417.0" y="584" text-anchor="middle" class="value" fill="#111111">32.0%</text>
<text x="83" y="611" text-anchor="end" class="gene">nodC</text>
<rect x="95" y="593" width="92" height="26" fill="rgb(49,105,168)" stroke="white" stroke-width="1"/>
<text x="141.0" y="610" text-anchor="middle" class="value" fill="white">91.7%</text>
<rect x="187" y="593" width="92" height="26" fill="rgb(136,168,205)" stroke="white" stroke-width="1"/>
<text x="233.0" y="610" text-anchor="middle" class="value" fill="#111111">50.8%</text>
<rect x="279" y="593" width="92" height="26" fill="rgb(177,198,222)" stroke="white" stroke-width="1"/>
<text x="325.0" y="610" text-anchor="middle" class="value" fill="#111111">31.7%</text>
<rect x="371" y="593" width="92" height="26" fill="rgb(173,195,220)" stroke="white" stroke-width="1"/>
<text x="417.0" y="610" text-anchor="middle" class="value" fill="#111111">33.6%</text>
<text x="83" y="637" text-anchor="end" class="gene">nodD</text>
<rect x="95" y="619" width="92" height="26" fill="rgb(245,247,251)" stroke="white" stroke-width="1"/>
<text x="141.0" y="636" text-anchor="middle" class="value" fill="#111111">0.0%</text>
<rect x="187" y="619" width="92" height="26" fill="rgb(238,242,248)" stroke="white" stroke-width="1"/>
<text x="233.0" y="636" text-anchor="middle" class="value" fill="#111111">3.3%</text>
<rect x="279" y="619" width="92" height="26" fill="rgb(239,243,249)" stroke="white" stroke-width="1"/>
<text x="325.0" y="636" text-anchor="middle" class="value" fill="#111111">2.7%</text>
<rect x="371" y="619" width="92" height="26" fill="rgb(236,240,247)" stroke="white" stroke-width="1"/>
<text x="417.0" y="636" text-anchor="middle" class="value" fill="#111111">4.4%</text>
<text x="83" y="663" text-anchor="end" class="gene">nodH</text>
<rect x="95" y="645" width="92" height="26" fill="rgb(245,247,251)" stroke="white" stroke-width="1"/>
<text x="141.0" y="662" text-anchor="middle" class="value" fill="#111111">0.0%</text>
<rect x="187" y="645" width="92" height="26" fill="rgb(238,242,248)" stroke="white" stroke-width="1"/>
<text x="233.0" y="662" text-anchor="middle" class="value" fill="#111111">3.3%</text>
<rect x="279" y="645" width="92" height="26" fill="rgb(240,244,249)" stroke="white" stroke-width="1"/>
<text x="325.0" y="662" text-anchor="middle" class="value" fill="#111111">2.2%</text>
<rect x="371" y="645" width="92" height="26" fill="rgb(238,242,248)" stroke="white" stroke-width="1"/>
<text x="417.0" y="662" text-anchor="middle" class="value" fill="#111111">3.3%</text>
<text x="83" y="689" text-anchor="end" class="gene">nodI</text>
<rect x="95" y="671" width="92" height="26" fill="rgb(31,92,160)" stroke="white" stroke-width="1"/>
<text x="141.0" y="688" text-anchor="middle" class="value" fill="white">100.0%</text>
<rect x="187" y="671" width="92" height="26" fill="rgb(107,147,192)" stroke="white" stroke-width="1"/>
<text x="233.0" y="688" text-anchor="middle" class="value" fill="white">64.5%</text>
<rect x="279" y="671" width="92" height="26" fill="rgb(159,185,215)" stroke="white" stroke-width="1"/>
<text x="325.0" y="688" text-anchor="middle" class="value" fill="#111111">40.1%</text>
<rect x="371" y="671" width="92" height="26" fill="rgb(163,187,216)" stroke="white" stroke-width="1"/>
<text x="417.0" y="688" text-anchor="middle" class="value" fill="#111111">38.5%</text>
<text x="83" y="715" text-anchor="end" class="gene">nodJ</text>
<rect x="95" y="697" width="92" height="26" fill="rgb(245,247,251)" stroke="white" stroke-width="1"/>
<text x="141.0" y="714" text-anchor="middle" class="value" fill="#111111">0.0%</text>
<rect x="187" y="697" width="92" height="26" fill="rgb(240,243,249)" stroke="white" stroke-width="1"/>
<text x="233.0" y="714" text-anchor="middle" class="value" fill="#111111">2.5%</text>
<rect x="279" y="697" width="92" height="26" fill="rgb(241,244,249)" stroke="white" stroke-width="1"/>
<text x="325.0" y="714" text-anchor="middle" class="value" fill="#111111">1.9%</text>
<rect x="371" y="697" width="92" height="26" fill="rgb(240,244,249)" stroke="white" stroke-width="1"/>
<text x="417.0" y="714" text-anchor="middle" class="value" fill="#111111">2.2%</text>
<text x="83" y="741" text-anchor="end" class="gene">nodL</text>
<rect x="95" y="723" width="92" height="26" fill="rgb(67,118,175)" stroke="white" stroke-width="1"/>
<text x="141.0" y="740" text-anchor="middle" class="value" fill="white">83.3%</text>
<rect x="187" y="723" width="92" height="26" fill="rgb(210,222,236)" stroke="white" stroke-width="1"/>
<text x="233.0" y="740" text-anchor="middle" class="value" fill="#111111">16.4%</text>
<rect x="279" y="723" width="92" height="26" fill="rgb(213,224,237)" stroke="white" stroke-width="1"/>
<text x="325.0" y="740" text-anchor="middle" class="value" fill="#111111">15.1%</text>
<rect x="371" y="723" width="92" height="26" fill="rgb(219,228,240)" stroke="white" stroke-width="1"/>
<text x="417.0" y="740" text-anchor="middle" class="value" fill="#111111">12.3%</text>
<text x="83" y="767" text-anchor="end" class="gene">nodQ</text>
<rect x="95" y="749" width="92" height="26" fill="rgb(31,92,160)" stroke="white" stroke-width="1"/>
<text x="141.0" y="766" text-anchor="middle" class="value" fill="white">100.0%</text>
<rect x="187" y="749" width="92" height="26" fill="rgb(162,187,216)" stroke="white" stroke-width="1"/>
<text x="233.0" y="766" text-anchor="middle" class="value" fill="#111111">38.8%</text>
<rect x="279" y="749" width="92" height="26" fill="rgb(166,190,217)" stroke="white" stroke-width="1"/>
<text x="325.0" y="766" text-anchor="middle" class="value" fill="#111111">37.1%</text>
<rect x="371" y="749" width="92" height="26" fill="rgb(171,193,219)" stroke="white" stroke-width="1"/>
<text x="417.0" y="766" text-anchor="middle" class="value" fill="#111111">34.7%</text>
<text x="83" y="793" text-anchor="end" class="gene">nodS</text>
<rect x="95" y="775" width="92" height="26" fill="rgb(156,182,213)" stroke="white" stroke-width="1"/>
<text x="141.0" y="792" text-anchor="middle" class="value" fill="#111111">41.7%</text>
<rect x="187" y="775" width="92" height="26" fill="rgb(200,214,232)" stroke="white" stroke-width="1"/>
<text x="233.0" y="792" text-anchor="middle" class="value" fill="#111111">21.0%</text>
<rect x="279" y="775" width="92" height="26" fill="rgb(221,230,241)" stroke="white" stroke-width="1"/>
<text x="325.0" y="792" text-anchor="middle" class="value" fill="#111111">11.0%</text>
<rect x="371" y="775" width="92" height="26" fill="rgb(223,231,242)" stroke="white" stroke-width="1"/>
<text x="417.0" y="792" text-anchor="middle" class="value" fill="#111111">10.1%</text>
<text x="83" y="819" text-anchor="end" class="gene">nodU</text>
<rect x="95" y="801" width="92" height="26" fill="rgb(138,170,206)" stroke="white" stroke-width="1"/>
<text x="141.0" y="818" text-anchor="middle" class="value" fill="#111111">50.0%</text>
<rect x="187" y="801" width="92" height="26" fill="rgb(150,178,211)" stroke="white" stroke-width="1"/>
<text x="233.0" y="818" text-anchor="middle" class="value" fill="#111111">44.3%</text>
<rect x="279" y="801" width="92" height="26" fill="rgb(208,220,235)" stroke="white" stroke-width="1"/>
<text x="325.0" y="818" text-anchor="middle" class="value" fill="#111111">17.5%</text>
<rect x="371" y="801" width="92" height="26" fill="rgb(201,215,232)" stroke="white" stroke-width="1"/>
<text x="417.0" y="818" text-anchor="middle" class="value" fill="#111111">20.5%</text>
<text x="83" y="845" text-anchor="end" class="gene">nodX</text>
<rect x="95" y="827" width="92" height="26" fill="rgb(67,118,175)" stroke="white" stroke-width="1"/>
<text x="141.0" y="844" text-anchor="middle" class="value" fill="white">83.3%</text>
<rect x="187" y="827" width="92" height="26" fill="rgb(238,242,248)" stroke="white" stroke-width="1"/>
<text x="233.0" y="844" text-anchor="middle" class="value" fill="#111111">3.3%</text>
<rect x="279" y="827" width="92" height="26" fill="rgb(236,240,247)" stroke="white" stroke-width="1"/>
<text x="325.0" y="844" text-anchor="middle" class="value" fill="#111111">4.3%</text>
<rect x="371" y="827" width="92" height="26" fill="rgb(237,241,248)" stroke="white" stroke-width="1"/>
<text x="417.0" y="844" text-anchor="middle" class="value" fill="#111111">3.6%</text>
<text x="83" y="871" text-anchor="end" class="gene">nodZ</text>
<rect x="95" y="853" width="92" height="26" fill="rgb(174,195,221)" stroke="white" stroke-width="1"/>
<text x="141.0" y="870" text-anchor="middle" class="value" fill="#111111">33.3%</text>
<rect x="187" y="853" width="92" height="26" fill="rgb(175,197,221)" stroke="white" stroke-width="1"/>
<text x="233.0" y="870" text-anchor="middle" class="value" fill="#111111">32.5%</text>
<rect x="279" y="853" width="92" height="26" fill="rgb(219,228,240)" stroke="white" stroke-width="1"/>
<text x="325.0" y="870" text-anchor="middle" class="value" fill="#111111">12.1%</text>
<rect x="371" y="853" width="92" height="26" fill="rgb(215,225,238)" stroke="white" stroke-width="1"/>
<text x="417.0" y="870" text-anchor="middle" class="value" fill="#111111">13.9%</text>
<text x="95" y="904" class="axis">Percent of samples with good coverage</text>
<rect x="95.00" y="914" width="3.50" height="14" fill="rgb(245,247,251)" stroke="none"/>
<rect x="97.50" y="914" width="3.50" height="14" fill="rgb(243,245,250)" stroke="none"/>
<rect x="100.00" y="914" width="3.50" height="14" fill="rgb(241,244,249)" stroke="none"/>
<rect x="102.50" y="914" width="3.50" height="14" fill="rgb(239,242,248)" stroke="none"/>
<rect x="105.00" y="914" width="3.50" height="14" fill="rgb(236,241,247)" stroke="none"/>
<rect x="107.50" y="914" width="3.50" height="14" fill="rgb(234,239,246)" stroke="none"/>
<rect x="110.00" y="914" width="3.50" height="14" fill="rgb(232,238,246)" stroke="none"/>
<rect x="112.50" y="914" width="3.50" height="14" fill="rgb(230,236,245)" stroke="none"/>
<rect x="115.00" y="914" width="3.50" height="14" fill="rgb(228,235,244)" stroke="none"/>
<rect x="117.50" y="914" width="3.50" height="14" fill="rgb(226,233,243)" stroke="none"/>
<rect x="120.00" y="914" width="3.50" height="14" fill="rgb(224,232,242)" stroke="none"/>
<rect x="122.50" y="914" width="3.50" height="14" fill="rgb(221,230,241)" stroke="none"/>
<rect x="125.00" y="914" width="3.50" height="14" fill="rgb(219,228,240)" stroke="none"/>
<rect x="127.50" y="914" width="3.50" height="14" fill="rgb(217,227,239)" stroke="none"/>
<rect x="130.00" y="914" width="3.50" height="14" fill="rgb(215,225,238)" stroke="none"/>
<rect x="132.50" y="914" width="3.50" height="14" fill="rgb(213,224,237)" stroke="none"/>
<rect x="135.00" y="914" width="3.50" height="14" fill="rgb(211,222,236)" stroke="none"/>
<rect x="137.50" y="914" width="3.50" height="14" fill="rgb(209,221,236)" stroke="none"/>
<rect x="140.00" y="914" width="3.50" height="14" fill="rgb(206,219,235)" stroke="none"/>
<rect x="142.50" y="914" width="3.50" height="14" fill="rgb(204,218,234)" stroke="none"/>
<rect x="145.00" y="914" width="3.50" height="14" fill="rgb(202,216,233)" stroke="none"/>
<rect x="147.50" y="914" width="3.50" height="14" fill="rgb(200,214,232)" stroke="none"/>
<rect x="150.00" y="914" width="3.50" height="14" fill="rgb(198,213,231)" stroke="none"/>
<rect x="152.50" y="914" width="3.50" height="14" fill="rgb(196,211,230)" stroke="none"/>
<rect x="155.00" y="914" width="3.50" height="14" fill="rgb(194,210,229)" stroke="none"/>
<rect x="157.50" y="914" width="3.50" height="14" fill="rgb(192,208,228)" stroke="none"/>
<rect x="160.00" y="914" width="3.50" height="14" fill="rgb(189,207,227)" stroke="none"/>
<rect x="162.50" y="914" width="3.50" height="14" fill="rgb(187,205,226)" stroke="none"/>
<rect x="165.00" y="914" width="3.50" height="14" fill="rgb(185,204,226)" stroke="none"/>
<rect x="167.50" y="914" width="3.50" height="14" fill="rgb(183,202,225)" stroke="none"/>
<rect x="170.00" y="914" width="3.50" height="14" fill="rgb(181,200,224)" stroke="none"/>
<rect x="172.50" y="914" width="3.50" height="14" fill="rgb(179,199,223)" stroke="none"/>
<rect x="175.00" y="914" width="3.50" height="14" fill="rgb(177,197,222)" stroke="none"/>
<rect x="177.50" y="914" width="3.50" height="14" fill="rgb(174,196,221)" stroke="none"/>
<rect x="180.00" y="914" width="3.50" height="14" fill="rgb(172,194,220)" stroke="none"/>
<rect x="182.50" y="914" width="3.50" height="14" fill="rgb(170,193,219)" stroke="none"/>
<rect x="185.00" y="914" width="3.50" height="14" fill="rgb(168,191,218)" stroke="none"/>
<rect x="187.50" y="914" width="3.50" height="14" fill="rgb(166,190,217)" stroke="none"/>
<rect x="190.00" y="914" width="3.50" height="14" fill="rgb(164,188,216)" stroke="none"/>
<rect x="192.50" y="914" width="3.50" height="14" fill="rgb(162,187,216)" stroke="none"/>
<rect x="195.00" y="914" width="3.50" height="14" fill="rgb(159,185,215)" stroke="none"/>
<rect x="197.50" y="914" width="3.50" height="14" fill="rgb(157,183,214)" stroke="none"/>
<rect x="200.00" y="914" width="3.50" height="14" fill="rgb(155,182,213)" stroke="none"/>
<rect x="202.50" y="914" width="3.50" height="14" fill="rgb(153,180,212)" stroke="none"/>
<rect x="205.00" y="914" width="3.50" height="14" fill="rgb(151,179,211)" stroke="none"/>
<rect x="207.50" y="914" width="3.50" height="14" fill="rgb(149,177,210)" stroke="none"/>
<rect x="210.00" y="914" width="3.50" height="14" fill="rgb(147,176,209)" stroke="none"/>
<rect x="212.50" y="914" width="3.50" height="14" fill="rgb(144,174,208)" stroke="none"/>
<rect x="215.00" y="914" width="3.50" height="14" fill="rgb(142,173,207)" stroke="none"/>
<rect x="217.50" y="914" width="3.50" height="14" fill="rgb(140,171,206)" stroke="none"/>
<rect x="220.00" y="914" width="3.50" height="14" fill="rgb(138,170,206)" stroke="none"/>
<rect x="222.50" y="914" width="3.50" height="14" fill="rgb(136,168,205)" stroke="none"/>
<rect x="225.00" y="914" width="3.50" height="14" fill="rgb(134,166,204)" stroke="none"/>
<rect x="227.50" y="914" width="3.50" height="14" fill="rgb(132,165,203)" stroke="none"/>
<rect x="230.00" y="914" width="3.50" height="14" fill="rgb(129,163,202)" stroke="none"/>
<rect x="232.50" y="914" width="3.50" height="14" fill="rgb(127,162,201)" stroke="none"/>
<rect x="235.00" y="914" width="3.50" height="14" fill="rgb(125,160,200)" stroke="none"/>
<rect x="237.50" y="914" width="3.50" height="14" fill="rgb(123,159,199)" stroke="none"/>
<rect x="240.00" y="914" width="3.50" height="14" fill="rgb(121,157,198)" stroke="none"/>
<rect x="242.50" y="914" width="3.50" height="14" fill="rgb(119,156,197)" stroke="none"/>
<rect x="245.00" y="914" width="3.50" height="14" fill="rgb(117,154,196)" stroke="none"/>
<rect x="247.50" y="914" width="3.50" height="14" fill="rgb(114,152,195)" stroke="none"/>
<rect x="250.00" y="914" width="3.50" height="14" fill="rgb(112,151,195)" stroke="none"/>
<rect x="252.50" y="914" width="3.50" height="14" fill="rgb(110,149,194)" stroke="none"/>
<rect x="255.00" y="914" width="3.50" height="14" fill="rgb(108,148,193)" stroke="none"/>
<rect x="257.50" y="914" width="3.50" height="14" fill="rgb(106,146,192)" stroke="none"/>
<rect x="260.00" y="914" width="3.50" height="14" fill="rgb(104,145,191)" stroke="none"/>
<rect x="262.50" y="914" width="3.50" height="14" fill="rgb(102,143,190)" stroke="none"/>
<rect x="265.00" y="914" width="3.50" height="14" fill="rgb(99,142,189)" stroke="none"/>
<rect x="267.50" y="914" width="3.50" height="14" fill="rgb(97,140,188)" stroke="none"/>
<rect x="270.00" y="914" width="3.50" height="14" fill="rgb(95,138,187)" stroke="none"/>
<rect x="272.50" y="914" width="3.50" height="14" fill="rgb(93,137,186)" stroke="none"/>
<rect x="275.00" y="914" width="3.50" height="14" fill="rgb(91,135,185)" stroke="none"/>
<rect x="277.50" y="914" width="3.50" height="14" fill="rgb(89,134,185)" stroke="none"/>
<rect x="280.00" y="914" width="3.50" height="14" fill="rgb(87,132,184)" stroke="none"/>
<rect x="282.50" y="914" width="3.50" height="14" fill="rgb(84,131,183)" stroke="none"/>
<rect x="285.00" y="914" width="3.50" height="14" fill="rgb(82,129,182)" stroke="none"/>
<rect x="287.50" y="914" width="3.50" height="14" fill="rgb(80,128,181)" stroke="none"/>
<rect x="290.00" y="914" width="3.50" height="14" fill="rgb(78,126,180)" stroke="none"/>
<rect x="292.50" y="914" width="3.50" height="14" fill="rgb(76,125,179)" stroke="none"/>
<rect x="295.00" y="914" width="3.50" height="14" fill="rgb(74,123,178)" stroke="none"/>
<rect x="297.50" y="914" width="3.50" height="14" fill="rgb(72,121,177)" stroke="none"/>
<rect x="300.00" y="914" width="3.50" height="14" fill="rgb(70,120,176)" stroke="none"/>
<rect x="302.50" y="914" width="3.50" height="14" fill="rgb(67,118,175)" stroke="none"/>
<rect x="305.00" y="914" width="3.50" height="14" fill="rgb(65,117,175)" stroke="none"/>
<rect x="307.50" y="914" width="3.50" height="14" fill="rgb(63,115,174)" stroke="none"/>
<rect x="310.00" y="914" width="3.50" height="14" fill="rgb(61,114,173)" stroke="none"/>
<rect x="312.50" y="914" width="3.50" height="14" fill="rgb(59,112,172)" stroke="none"/>
<rect x="315.00" y="914" width="3.50" height="14" fill="rgb(57,111,171)" stroke="none"/>
<rect x="317.50" y="914" width="3.50" height="14" fill="rgb(55,109,170)" stroke="none"/>
<rect x="320.00" y="914" width="3.50" height="14" fill="rgb(52,108,169)" stroke="none"/>
<rect x="322.50" y="914" width="3.50" height="14" fill="rgb(50,106,168)" stroke="none"/>
<rect x="325.00" y="914" width="3.50" height="14" fill="rgb(48,104,167)" stroke="none"/>
<rect x="327.50" y="914" width="3.50" height="14" fill="rgb(46,103,166)" stroke="none"/>
<rect x="330.00" y="914" width="3.50" height="14" fill="rgb(44,101,165)" stroke="none"/>
<rect x="332.50" y="914" width="3.50" height="14" fill="rgb(42,100,165)" stroke="none"/>
<rect x="335.00" y="914" width="3.50" height="14" fill="rgb(40,98,164)" stroke="none"/>
<rect x="337.50" y="914" width="3.50" height="14" fill="rgb(37,97,163)" stroke="none"/>
<rect x="340.00" y="914" width="3.50" height="14" fill="rgb(35,95,162)" stroke="none"/>
<rect x="342.50" y="914" width="3.50" height="14" fill="rgb(33,94,161)" stroke="none"/>
<rect x="345.00" y="914" width="3.50" height="14" fill="rgb(31,92,160)" stroke="none"/>
<line x1="95.0" y1="928" x2="95.0" y2="933" stroke="#333"/>
<text x="95.0" y="948" text-anchor="middle" class="note">0%</text>
<line x1="157.5" y1="928" x2="157.5" y2="933" stroke="#333"/>
<text x="157.5" y="948" text-anchor="middle" class="note">25%</text>
<line x1="220.0" y1="928" x2="220.0" y2="933" stroke="#333"/>
<text x="220.0" y="948" text-anchor="middle" class="note">50%</text>
<line x1="282.5" y1="928" x2="282.5" y2="933" stroke="#333"/>
<text x="282.5" y="948" text-anchor="middle" class="note">75%</text>
<line x1="345.0" y1="928" x2="345.0" y2="933" stroke="#333"/>
<text x="345.0" y="948" text-anchor="middle" class="note">100%</text>
<text x="319.0" y="959" text-anchor="middle" class="note">BLAN controls are shown for QC comparison; biological interpretation should focus on No, Rh, and Ro samples.</text>
</svg>
