<svg xmlns="http://www.w3.org/2000/svg" width="1100" height="620" viewBox="0 0 1100 620">
<rect width="100%" height="100%" fill="white"/>
<text x="550" y="35" text-anchor="middle" font-size="24" font-family="Arial" font-weight="bold">Symbiosis Mapping QC Across Samples</text>
<text x="550" y="63" text-anchor="middle" font-size="14" font-family="Arial">Samples summarized: 1116; BLAN controls included: 12</text>
<text x="300.0" y="105" text-anchor="middle" font-size="18" font-family="Arial" font-weight="bold">A. Mapped reads</text>
<rect x="95" y="130" width="410" height="310" fill="white" stroke="black"/>
<line x1="95.0" y1="130" x2="95.0" y2="440" stroke="#eeeeee"/>
<text x="95.0" y="460" text-anchor="middle" font-size="12" font-family="Arial">0</text>
<line x1="197.5" y1="130" x2="197.5" y2="440" stroke="#eeeeee"/>
<text x="197.5" y="460" text-anchor="middle" font-size="12" font-family="Arial">25</text>
<line x1="300.0" y1="130" x2="300.0" y2="440" stroke="#eeeeee"/>
<text x="300.0" y="460" text-anchor="middle" font-size="12" font-family="Arial">50</text>
<line x1="402.5" y1="130" x2="402.5" y2="440" stroke="#eeeeee"/>
<text x="402.5" y="460" text-anchor="middle" font-size="12" font-family="Arial">75</text>
<line x1="505.0" y1="130" x2="505.0" y2="440" stroke="#eeeeee"/>
<text x="505.0" y="460" text-anchor="middle" font-size="12" font-family="Arial">100</text>
<line x1="90" y1="440.0" x2="95" y2="440.0" stroke="black"/>
<text x="85" y="444.0" text-anchor="end" font-size="12" font-family="Arial">0</text>
<line x1="90" y1="285.0" x2="95" y2="285.0" stroke="black"/>
<text x="85" y="289.0" text-anchor="end" font-size="12" font-family="Arial">267</text>
<line x1="90" y1="130.0" x2="95" y2="130.0" stroke="black"/>
<text x="85" y="134.0" text-anchor="end" font-size="12" font-family="Arial">534</text>
<rect x="96.0" y="440.0" width="18.5" height="0.0" fill="#8DD3C7" stroke="white"/>
<rect x="116.5" y="440.0" width="18.5" height="0.0" fill="#8DD3C7" stroke="white"/>
<rect x="137.0" y="440.0" width="18.5" height="0.0" fill="#8DD3C7" stroke="white"/>
<rect x="157.5" y="440.0" width="18.5" height="0.0" fill="#8DD3C7" stroke="white"/>
<rect x="178.0" y="440.0" width="18.5" height="0.0" fill="#8DD3C7" stroke="white"/>
<rect x="198.5" y="440.0" width="18.5" height="0.0" fill="#8DD3C7" stroke="white"/>
<rect x="219.0" y="440.0" width="18.5" height="0.0" fill="#8DD3C7" stroke="white"/>
<rect x="239.5" y="440.0" width="18.5" height="0.0" fill="#8DD3C7" stroke="white"/>
<rect x="260.0" y="440.0" width="18.5" height="0.0" fill="#8DD3C7" stroke="white"/>
<rect x="280.5" y="440.0" width="18.5" height="0.0" fill="#8DD3C7" stroke="white"/>
<rect x="301.0" y="440.0" width="18.5" height="0.0" fill="#8DD3C7" stroke="white"/>
<rect x="321.5" y="440.0" width="18.5" height="0.0" fill="#8DD3C7" stroke="white"/>
<rect x="342.0" y="440.0" width="18.5" height="0.0" fill="#8DD3C7" stroke="white"/>
<rect x="362.5" y="440.0" width="18.5" height="0.0" fill="#8DD3C7" stroke="white"/>
<rect x="383.0" y="440.0" width="18.5" height="0.0" fill="#8DD3C7" stroke="white"/>
<rect x="403.5" y="438.3" width="18.5" height="1.7" fill="#8DD3C7" stroke="white"/>
<rect x="424.0" y="422.0" width="18.5" height="18.0" fill="#8DD3C7" stroke="white"/>
<rect x="444.5" y="352.9" width="18.5" height="87.1" fill="#8DD3C7" stroke="white"/>
<rect x="465.0" y="130.0" width="18.5" height="310.0" fill="#8DD3C7" stroke="white"/>
<rect x="485.5" y="209.0" width="18.5" height="231.0" fill="#8DD3C7" stroke="white"/>
<line x1="477.5" y1="130" x2="477.5" y2="440" stroke="#006D2C" stroke-width="3"/>
<text x="477.5" y="123" text-anchor="middle" font-size="12" font-family="Arial" fill="#006D2C">mean 93.3%</text>
<text x="300.0" y="488" text-anchor="middle" font-size="14" font-family="Arial">Percent</text>
<text x="40" y="285.0" transform="rotate(-90 40,285.0)" text-anchor="middle" font-size="14" font-family="Arial">Number of samples</text>
<text x="300.0" y="510" text-anchor="middle" font-size="12" font-family="Arial">median 93.6%</text>
<text x="840.0" y="105" text-anchor="middle" font-size="18" font-family="Arial" font-weight="bold">B. Properly paired reads</text>
<rect x="635" y="130" width="410" height="310" fill="white" stroke="black"/>
<line x1="635.0" y1="130" x2="635.0" y2="440" stroke="#eeeeee"/>
<text x="635.0" y="460" text-anchor="middle" font-size="12" font-family="Arial">0</text>
<line x1="737.5" y1="130" x2="737.5" y2="440" stroke="#eeeeee"/>
<text x="737.5" y="460" text-anchor="middle" font-size="12" font-family="Arial">25</text>
<line x1="840.0" y1="130" x2="840.0" y2="440" stroke="#eeeeee"/>
<text x="840.0" y="460" text-anchor="middle" font-size="12" font-family="Arial">50</text>
<line x1="942.5" y1="130" x2="942.5" y2="440" stroke="#eeeeee"/>
<text x="942.5" y="460" text-anchor="middle" font-size="12" font-family="Arial">75</text>
<line x1="1045.0" y1="130" x2="1045.0" y2="440" stroke="#eeeeee"/>
<text x="1045.0" y="460" text-anchor="middle" font-size="12" font-family="Arial">100</text>
<line x1="630" y1="440.0" x2="635" y2="440.0" stroke="black"/>
<text x="625" y="444.0" text-anchor="end" font-size="12" font-family="Arial">0</text>
<line x1="630" y1="285.5" x2="635" y2="285.5" stroke="black"/>
<text x="625" y="289.5" text-anchor="end" font-size="12" font-family="Arial">144</text>
<line x1="630" y1="130.0" x2="635" y2="130.0" stroke="black"/>
<text x="625" y="134.0" text-anchor="end" font-size="12" font-family="Arial">289</text>
<rect x="636.0" y="440.0" width="18.5" height="0.0" fill="#BEBADA" stroke="white"/>
<rect x="656.5" y="440.0" width="18.5" height="0.0" fill="#BEBADA" stroke="white"/>
<rect x="677.0" y="440.0" width="18.5" height="0.0" fill="#BEBADA" stroke="white"/>
<rect x="697.5" y="440.0" width="18.5" height="0.0" fill="#BEBADA" stroke="white"/>
<rect x="718.0" y="440.0" width="18.5" height="0.0" fill="#BEBADA" stroke="white"/>
<rect x="738.5" y="440.0" width="18.5" height="0.0" fill="#BEBADA" stroke="white"/>
<rect x="759.0" y="440.0" width="18.5" height="0.0" fill="#BEBADA" stroke="white"/>
<rect x="779.5" y="440.0" width="18.5" height="0.0" fill="#BEBADA" stroke="white"/>
<rect x="800.0" y="440.0" width="18.5" height="0.0" fill="#BEBADA" stroke="white"/>
<rect x="820.5" y="437.9" width="18.5" height="2.1" fill="#BEBADA" stroke="white"/>
<rect x="841.0" y="437.9" width="18.5" height="2.1" fill="#BEBADA" stroke="white"/>
<rect x="861.5" y="432.5" width="18.5" height="7.5" fill="#BEBADA" stroke="white"/>
<rect x="882.0" y="423.9" width="18.5" height="16.1" fill="#BEBADA" stroke="white"/>
<rect x="902.5" y="415.3" width="18.5" height="24.7" fill="#BEBADA" stroke="white"/>
<rect x="923.0" y="358.5" width="18.5" height="81.5" fill="#BEBADA" stroke="white"/>
<rect x="943.5" y="302.7" width="18.5" height="137.3" fill="#BEBADA" stroke="white"/>
<rect x="964.0" y="170.8" width="18.5" height="269.2" fill="#BEBADA" stroke="white"/>
<rect x="984.5" y="130.0" width="18.5" height="310.0" fill="#BEBADA" stroke="white"/>
<rect x="1005.0" y="202.9" width="18.5" height="237.1" fill="#BEBADA" stroke="white"/>
<rect x="1025.5" y="330.6" width="18.5" height="109.4" fill="#BEBADA" stroke="white"/>
<line x1="983.6" y1="130" x2="983.6" y2="440" stroke="#54278F" stroke-width="3"/>
<text x="983.6" y="123" text-anchor="middle" font-size="12" font-family="Arial" fill="#54278F">mean 85.0%</text>
<text x="840.0" y="488" text-anchor="middle" font-size="14" font-family="Arial">Percent</text>
<text x="580" y="285.0" transform="rotate(-90 580,285.0)" text-anchor="middle" font-size="14" font-family="Arial">Number of samples</text>
<text x="840.0" y="510" text-anchor="middle" font-size="12" font-family="Arial">median 85.8%</text>
<text x="550" y="585" text-anchor="middle" font-size="13" font-family="Arial">Mapping QC was calculated from samtools flagstat reports after mapping trimmed reads to symbiosis_islands.fasta.</text>
</svg>